<svg width="22" height="22" viewBox="0 0 22 22" fill="none" xmlns="http://www.w3.org/2000/svg">
<path d="M19.1807 2.96429H2.91563C2.01201 2.96429 1.1084 3.85715 1.1084 4.75001V17.25C1.1084 18.2322 1.92165 19.0357 2.91563 19.0357H19.1807C20.0843 19.0357 20.9879 18.1429 20.9879 17.25V4.75001C20.9879 3.85715 20.0843 2.96429 19.1807 2.96429ZM5.29213 14.7411L7.54213 11.8839C7.72286 11.6607 8.06623 11.6518 8.24695 11.875L10.1445 14.1339L12.9457 10.5714C13.1265 10.3393 13.4879 10.3393 13.6686 10.5804L16.8403 14.7589C17.0662 15.0536 16.8494 15.4732 16.4789 15.4732H5.64454C5.27406 15.4643 5.05719 15.0357 5.29213 14.7411Z" fill="#323232"/>
</svg>
