<svg width="20" height="20" viewBox="0 0 20 20" fill="none" xmlns="http://www.w3.org/2000/svg">
<g opacity="0.8">
<path fill-rule="evenodd" clip-rule="evenodd" d="M14.9998 15.8333C14.9998 16.2925 14.6265 16.6667 14.1665 16.6667H5.83317C5.37317 16.6667 4.99984 16.2925 4.99984 15.8333V6.66667H14.9998V15.8333ZM8.33317 3.60667C8.33317 3.47751 8.5115 3.33334 8.74984 3.33334H11.2498C11.4882 3.33334 11.6665 3.47751 11.6665 3.60667V5.00001H8.33317V3.60667ZM17.4998 5.00001H16.6665H13.3332V3.60667C13.3332 2.53667 12.399 1.66667 11.2498 1.66667H8.74984C7.60067 1.66667 6.6665 2.53667 6.6665 3.60667V5.00001H3.33317H2.49984C2.0415 5.00001 1.6665 5.37501 1.6665 5.83334C1.6665 6.29167 2.0415 6.66667 2.49984 6.66667H3.33317V15.8333C3.33317 17.2117 4.45484 18.3333 5.83317 18.3333H14.1665C15.5448 18.3333 16.6665 17.2117 16.6665 15.8333V6.66667H17.4998C17.9582 6.66667 18.3332 6.29167 18.3332 5.83334C18.3332 5.37501 17.9582 5.00001 17.4998 5.00001Z" fill="black"/>
<mask id="mask0" mask-type="alpha" maskUnits="userSpaceOnUse" x="1" y="1" width="18" height="18">
<path fill-rule="evenodd" clip-rule="evenodd" d="M14.9998 15.8333C14.9998 16.2925 14.6265 16.6667 14.1665 16.6667H5.83317C5.37317 16.6667 4.99984 16.2925 4.99984 15.8333V6.66667H14.9998V15.8333ZM8.33317 3.60667C8.33317 3.47751 8.5115 3.33334 8.74984 3.33334H11.2498C11.4882 3.33334 11.6665 3.47751 11.6665 3.60667V5.00001H8.33317V3.60667ZM17.4998 5.00001H16.6665H13.3332V3.60667C13.3332 2.53667 12.399 1.66667 11.2498 1.66667H8.74984C7.60067 1.66667 6.6665 2.53667 6.6665 3.60667V5.00001H3.33317H2.49984C2.0415 5.00001 1.6665 5.37501 1.6665 5.83334C1.6665 6.29167 2.0415 6.66667 2.49984 6.66667H3.33317V15.8333C3.33317 17.2117 4.45484 18.3333 5.83317 18.3333H14.1665C15.5448 18.3333 16.6665 17.2117 16.6665 15.8333V6.66667H17.4998C17.9582 6.66667 18.3332 6.29167 18.3332 5.83334C18.3332 5.37501 17.9582 5.00001 17.4998 5.00001Z" fill="white"/>
</mask>
<g mask="url(#mask0)">
<rect x="12.5" width="20" height="20" fill="black"/>
</g>
</g>
</svg>
