<svg width="114" height="96" viewBox="0 0 114 96" fill="none" xmlns="http://www.w3.org/2000/svg">
<path id="&#226;&#128;&#156;" opacity="0.21" fill-rule="evenodd" clip-rule="evenodd" d="M44.9991 88.4778C40.1992 92.9752 33.8565 95.2239 25.9709 95.2239C17.9139 95.2239 11.5712 92.7157 6.94272 87.6994C2.31424 82.683 0 75.591 0 66.4232C0 60.196 1.45711 53.104 4.37134 45.147C7.28557 37.1901 11.1855 29.2331 16.0711 21.2762C20.9567 13.3192 26.5709 6.22717 32.9136 0H52.7132C49.799 6.91908 47.5705 13.2327 46.0276 18.941C44.4848 24.6492 43.7134 29.8385 43.7134 34.5089C43.7134 39.8712 44.3991 44.4551 45.7705 48.2606C47.1419 52.0661 48.5562 55.7851 50.0133 59.4176C51.4704 63.0501 52.1989 67.3746 52.1989 72.3909C52.1989 78.6181 49.799 83.9804 44.9991 88.4778ZM106.214 88.4778C101.414 92.9752 95.0718 95.2239 87.1862 95.2239C79.1292 95.2239 72.7865 92.7157 68.158 87.6994C63.5295 82.683 61.2153 75.591 61.2153 66.4232C61.2153 60.196 62.6724 53.104 65.5866 45.147C68.5009 37.1901 72.4008 29.2331 77.2864 21.2762C82.172 13.3192 87.7862 6.22717 94.1289 0H113.929C111.014 6.91908 108.786 13.2327 107.243 18.941C105.7 24.6492 104.929 29.8385 104.929 34.5089C104.929 39.8712 105.614 44.4551 106.986 48.2606C108.357 52.0661 109.771 55.7851 111.229 59.4176C112.686 63.0501 113.414 67.3746 113.414 72.3909C113.414 78.6181 111.014 83.9804 106.214 88.4778Z" fill="#0088DC"/>
</svg>
